<svg width="1440" height="491" viewBox="0 0 1440 491" fill="none" xmlns="http://www.w3.org/2000/svg">
<rect width="1440" height="263" transform="translate(0 105)" fill="#FF7675"/>
<path fill-rule="evenodd" clip-rule="evenodd" d="M0 0L60 5.67568C120 11.7568 240 23.1081 360 37.7027C480 52.2973 600 70.1351 720 70.1351C840 70.1351 960 52.2973 1080 40.9459C1200 29.1892 1320 23.1081 1380 20.2703L1440 17.4324V105H1380C1320 105 1200 105 1080 105C960 105 840 105 720 105C600 105 480 105 360 105C240 105 120 105 60 105H0V0Z" fill="#FF7675"/>
<path fill-rule="evenodd" clip-rule="evenodd" d="M0 491H60C120 491 240 491 360 482.447C480 473.487 600 455.974 720 447.013C840 438.46 960 438.46 1080 441.311C1200 444.162 1320 450.272 1380 453.123L1440 455.974V368H1380C1320 368 1200 368 1080 368C960 368 840 368 720 368C600 368 480 368 360 368C240 368 120 368 60 368H0V491Z" fill="#FF7675"/>
</svg>
