<svg width="1440" height="808" viewBox="0 0 1440 808" fill="none" xmlns="http://www.w3.org/2000/svg">
<path opacity="0.5" d="M0 66H1440V656C1440 656 1171 766 873.5 685.5C576 605 420 808 229.5 808C39 808 0 754 0 754V66Z" fill="#FF7675"/>
<path d="M0 -2H1440V686C1440 686 1204.5 730 864 686C523.5 642 420 740 229.5 740C39 740 0 686 0 686V-2Z" fill="#FF7675"/>
<path d="M3.05176e-05 567C10.6667 596.667 66.5 657.6 196.5 664C326.5 670.4 431.5 656.648 496 648C525.833 644 612.4 640 720 656C827.6 672 874.667 684.5 887.5 689C840 683 595 670.5 369.5 725.5C144 780.5 3.8147e-05 702 3.8147e-05 702L0 608.5L3.05176e-05 567Z" fill="#FF8C8B"/>
</svg>
